<svg id="Layer_1" data-name="Layer 1" xmlns="http://www.w3.org/2000/svg" xmlns:xlink="http://www.w3.org/1999/xlink" viewBox="0 0 602.19 94.51"><defs><style>.cls-1{fill:url(#radial-gradient);}.cls-2{fill:url(#radial-gradient-2);}.cls-3{fill:#2b98f0;}.cls-4{fill:url(#radial-gradient-3);}.cls-5{fill:url(#radial-gradient-4);}.cls-6{fill:url(#radial-gradient-5);}.cls-7{fill:url(#radial-gradient-6);}.cls-8{fill:url(#radial-gradient-7);}.cls-9{fill:url(#radial-gradient-8);}.cls-10{fill:url(#radial-gradient-9);}.cls-11{fill:url(#radial-gradient-10);}.cls-12{fill:url(#radial-gradient-11);}.cls-13{fill:url(#radial-gradient-12);}.cls-14{fill:url(#radial-gradient-13);}.cls-15{fill:url(#radial-gradient-14);}.cls-16{fill:url(#radial-gradient-15);}.cls-17{fill:url(#radial-gradient-16);}.cls-18{fill:url(#radial-gradient-17);}.cls-19{fill:url(#radial-gradient-22);}.cls-20{fill:url(#radial-gradient-23);}.cls-21{fill:url(#radial-gradient-24);}.cls-22{fill:url(#radial-gradient-25);}.cls-23{fill:url(#radial-gradient-26);}.cls-24{fill:url(#radial-gradient-27);}.cls-25{fill:url(#radial-gradient-28);}</style><radialGradient id="radial-gradient" cx="-3517.35" cy="2612.76" r="18.02" gradientTransform="matrix(-0.23, -0.97, -0.97, 0.23, 1733.55, -3984.9)" gradientUnits="userSpaceOnUse"><stop offset="0.02" stop-color="#00a0e3"/><stop offset="0.8" stop-color="#00529b"/></radialGradient><radialGradient id="radial-gradient-2" cx="-759.69" cy="64.94" r="13.75" gradientTransform="matrix(0.97, -0.25, -0.25, -0.97, 756.24, -85.98)" gradientUnits="userSpaceOnUse"><stop offset="0.02" stop-color="#00a0e3"/><stop offset="1" stop-color="#00529b"/></radialGradient><radialGradient id="radial-gradient-3" cx="-3766.64" cy="1942.05" r="38.18" gradientTransform="matrix(0, -1, -1, 0, 1951.66, -3708.49)" xlink:href="#radial-gradient-2"/><radialGradient id="radial-gradient-4" cx="-3766.45" cy="1938.88" r="63.8" gradientTransform="matrix(0, -1, -1, 0, 1951.66, -3708.49)" xlink:href="#radial-gradient-2"/><radialGradient id="radial-gradient-5" cx="-3758.68" cy="1943.4" r="20.4" gradientTransform="matrix(0, -1, -1, 0, 1951.66, -3708.49)" xlink:href="#radial-gradient-2"/><radialGradient id="radial-gradient-6" cx="-3769.89" cy="1940.33" r="23.62" gradientTransform="matrix(0, -1, -1, 0, 1951.66, -3708.49)" xlink:href="#radial-gradient-2"/><radialGradient id="radial-gradient-7" cx="-3540.91" cy="2505" r="18.02" gradientTransform="matrix(0.97, -0.23, -0.23, -0.97, 4088.27, 1627.28)" xlink:href="#radial-gradient"/><radialGradient id="radial-gradient-8" cx="-652.44" cy="39.17" gradientTransform="matrix(0.25, 0.97, 0.97, -0.25, 189.35, 649.96)" xlink:href="#radial-gradient-2"/><radialGradient id="radial-gradient-9" cx="-3764.78" cy="1831.76" r="38.18" gradientTransform="matrix(1, 0, 0, -1, 3811.86, 1845.38)" xlink:href="#radial-gradient-2"/><radialGradient id="radial-gradient-10" cx="-3764.59" cy="1828.59" r="63.8" gradientTransform="matrix(1, 0, 0, -1, 3811.86, 1845.38)" xlink:href="#radial-gradient-2"/><radialGradient id="radial-gradient-11" cx="-3756.81" cy="1833.11" r="20.4" gradientTransform="matrix(1, 0, 0, -1, 3811.86, 1845.38)" xlink:href="#radial-gradient-2"/><radialGradient id="radial-gradient-12" cx="-3768.03" cy="1830.04" r="23.62" gradientTransform="matrix(1, 0, 0, -1, 3811.86, 1845.38)" xlink:href="#radial-gradient-2"/><radialGradient id="radial-gradient-13" cx="-3559.88" cy="2527.41" r="18.02" xlink:href="#radial-gradient"/><radialGradient id="radial-gradient-14" cx="-3703.99" cy="1846.43" r="38.18" gradientTransform="matrix(0, 1, 1, 0, -1749.2, 3748.31)" xlink:href="#radial-gradient-2"/><radialGradient id="radial-gradient-15" cx="-3703.8" cy="1843.26" r="63.8" gradientTransform="matrix(0, 1, 1, 0, -1749.2, 3748.31)" xlink:href="#radial-gradient-2"/><radialGradient id="radial-gradient-16" cx="-3696.03" cy="1847.78" r="20.4" gradientTransform="matrix(0, 1, 1, 0, -1749.2, 3748.31)" xlink:href="#radial-gradient-2"/><radialGradient id="radial-gradient-17" cx="-3707.24" cy="1844.71" r="23.62" gradientTransform="matrix(0, 1, 1, 0, -1749.2, 3748.31)" xlink:href="#radial-gradient-2"/><radialGradient id="radial-gradient-22" cx="-3557.06" cy="2661.48" r="18.02" gradientTransform="matrix(-0.97, 0.23, 0.23, 0.97, -4032.98, -1673.32)" xlink:href="#radial-gradient"/><radialGradient id="radial-gradient-23" cx="-809.22" cy="26.24" gradientTransform="matrix(-0.25, -0.97, -0.97, 0.25, -134.07, -696)" xlink:href="#radial-gradient-2"/><radialGradient id="radial-gradient-24" cx="-3816.5" cy="1980.33" r="38.18" gradientTransform="matrix(-1, 0, 0, 1, -3756.58, -1891.43)" xlink:href="#radial-gradient-2"/><radialGradient id="radial-gradient-25" cx="-3816.31" cy="1977.16" r="63.8" gradientTransform="matrix(-1, 0, 0, 1, -3756.58, -1891.43)" xlink:href="#radial-gradient-2"/><radialGradient id="radial-gradient-26" cx="-3808.54" cy="1981.68" r="20.4" gradientTransform="matrix(-1, 0, 0, 1, -3756.58, -1891.43)" xlink:href="#radial-gradient-2"/><radialGradient id="radial-gradient-27" cx="-3819.75" cy="1978.61" r="23.62" gradientTransform="matrix(-1, 0, 0, 1, -3756.58, -1891.43)" xlink:href="#radial-gradient-2"/><radialGradient id="radial-gradient-28" cx="-794.61" cy="-40.28" gradientTransform="matrix(-0.25, -0.97, -0.97, 0.25, -134.07, -696)" xlink:href="#radial-gradient-2"/></defs><title>logo</title><path class="cls-1" d="M6.08,32.14A7.9,7.9,0,1,1,.21,41.65a7.91,7.91,0,0,1,5.87-9.51Z" transform="translate(0 -4.01)"/><path class="cls-2" d="M5.2,37.91a4.16,4.16,0,1,1-3.1,5h0A4.16,4.16,0,0,1,5.2,37.91Z" transform="translate(0 -4.01)"/><path class="cls-3" d="M19.11,16.94a6.46,6.46,0,0,0-2.82,1l-1.21,1.21c-2,2.83-1.47,8.11,2.13,15.11,5.15,10-7.77,23-12.65,30.91-2.45,3.94,1,9.29,5.07,13.64L11,80.26,38.8,52.45a13.38,13.38,0,0,0,0-18.92h0l-16-16.1A8.68,8.68,0,0,0,19.11,16.94Z" transform="translate(0 -4.01)"/><path class="cls-4" d="M13.27,52.79c-3,4.66-6.61,9-8.71,12.41-2.45,3.94,1,9.29,5.07,13.64L11,80.26l18.89-18.9Z" transform="translate(0 -4.01)"/><path class="cls-5" d="M23.17,28l-8.34-8.39c-1.7,2.92-1.05,8,2.38,14.71,5.15,10-7.77,23-12.65,30.91a5,5,0,0,0-.72,1.94L23.17,47.71A14,14,0,0,0,23.17,28Z" transform="translate(0 -4.01)"/><path class="cls-6" d="M22.36,28.37l-7.93-7.94c-1.16,3-.34,7.78,2.78,13.86C22.31,44.22,9.71,57.06,4.72,65L22.36,47.3a13.38,13.38,0,0,0,0-18.92Z" transform="translate(0 -4.01)"/><path class="cls-7" d="M15.4,49.21c4-3.23,6-9.33,4.47-15.6A17,17,0,0,0,14,24.1a26.6,26.6,0,0,0,3.25,10.19C19.57,38.9,18.13,44.13,15.4,49.21Z" transform="translate(0 -4.01)"/><path class="cls-8" d="M73.09,10.09a7.9,7.9,0,1,1-9.51-5.87,7.89,7.89,0,0,1,9.51,5.87Z" transform="translate(0 -4.01)"/><path class="cls-9" d="M67.32,9.21a4.16,4.16,0,1,1-5-3.1h0A4.16,4.16,0,0,1,67.32,9.21Z" transform="translate(0 -4.01)"/><path class="cls-3" d="M88.29,23.12a6.38,6.38,0,0,0-1-2.82l-1.21-1.21c-2.83-2-8.11-1.47-15.11,2.13C61,26.37,48,13.45,40.06,8.57c-3.94-2.45-9.29,1-13.64,5.07L25,15l27.81,27.8a13.37,13.37,0,0,0,18.92,0h0l16.1-16A8.64,8.64,0,0,0,88.29,23.12Z" transform="translate(0 -4.01)"/><path class="cls-10" d="M52.44,17.28c-4.66-3-9-6.61-12.41-8.71-3.94-2.45-9.29,1-13.64,5.07L25,15,43.87,33.9Z" transform="translate(0 -4.01)"/><path class="cls-11" d="M77.23,27.18l8.39-8.34c-2.92-1.7-8-1.05-14.71,2.38-10,5.15-23-7.77-30.91-12.65a5.18,5.18,0,0,0-1.94-.72L57.52,27.18A14,14,0,0,0,77.23,27.18Z" transform="translate(0 -4.01)"/><path class="cls-12" d="M76.86,26.37l7.94-7.93c-3-1.16-7.78-.34-13.86,2.78C61,26.32,48.17,13.72,40.23,8.73l17.7,17.64a13.37,13.37,0,0,0,18.92,0Z" transform="translate(0 -4.01)"/><path class="cls-13" d="M56,19.41c3.23,4,9.33,6,15.6,4.47A16.92,16.92,0,0,0,81.13,18a26.6,26.6,0,0,0-10.19,3.25C66.33,23.58,61.1,22.14,56,19.41Z" transform="translate(0 -4.01)"/><path class="cls-14" d="M98.92,53.89a7.9,7.9,0,1,1-5.87,9.51,7.91,7.91,0,0,1,5.87-9.51Z" transform="translate(0 -4.01)"/><path class="cls-3" d="M87.73,85.54a6.46,6.46,0,0,0,2.82-1l1.21-1.21c2-2.83,1.47-8.11-2.13-15.11-5.15-10,7.77-23,12.65-30.91,2.45-3.94-1-9.29-5.07-13.64l-1.37-1.45L68,50A13.38,13.38,0,0,0,68,69h0l16,16.1A8.83,8.83,0,0,0,87.73,85.54Z" transform="translate(0 -4.01)"/><path class="cls-15" d="M93.57,49.69c3-4.66,6.61-9,8.71-12.41,2.45-3.94-1-9.29-5.07-13.64l-1.37-1.42L77,41.12Z" transform="translate(0 -4.01)"/><path class="cls-16" d="M83.67,74.48,92,82.87c1.7-2.92,1-8-2.38-14.71-5.15-10,7.77-23,12.65-30.91a5.24,5.24,0,0,0,.72-1.94L83.67,54.77A14,14,0,0,0,83.67,74.48Z" transform="translate(0 -4.01)"/><path class="cls-17" d="M84.48,74.11l7.93,7.94c1.16-3,.34-7.78-2.78-13.86-5.1-9.93,7.5-22.77,12.49-30.71L84.48,55.18a13.38,13.38,0,0,0,0,18.92Z" transform="translate(0 -4.01)"/><path class="cls-18" d="M91.44,53.27c-4,3.23-6,9.33-4.47,15.6a17,17,0,0,0,5.87,9.51,26.54,26.54,0,0,0-3.25-10.19C87.27,63.58,88.71,58.35,91.44,53.27Z" transform="translate(0 -4.01)"/><path class="cls-15" d="M93.57,49.69c3-4.66,6.61-9,8.71-12.41,2.45-3.94-1-9.29-5.07-13.64l-1.37-1.42L77,41.12Z" transform="translate(0 -4.01)"/><path class="cls-16" d="M83.67,74.48,92,82.87c1.7-2.92,1-8-2.38-14.71-5.15-10,7.77-23,12.65-30.91a5.24,5.24,0,0,0,.72-1.94L83.67,54.77A14,14,0,0,0,83.67,74.48Z" transform="translate(0 -4.01)"/><path class="cls-17" d="M84.48,74.11l7.93,7.94c1.16-3,.34-7.78-2.78-13.86-5.1-9.93,7.5-22.77,12.49-30.71L84.48,55.18a13.38,13.38,0,0,0,0,18.92Z" transform="translate(0 -4.01)"/><path class="cls-18" d="M91.44,53.27c-4,3.23-6,9.33-4.47,15.6a17,17,0,0,0,5.87,9.51,26.54,26.54,0,0,0-3.25-10.19C87.27,63.58,88.71,58.35,91.44,53.27Z" transform="translate(0 -4.01)"/><path class="cls-19" d="M33.91,92.43a7.9,7.9,0,1,1,9.51,5.87,7.89,7.89,0,0,1-9.51-5.87Z" transform="translate(0 -4.01)"/><path class="cls-20" d="M39.68,93.31a4.16,4.16,0,1,1,5,3.1h0A4.15,4.15,0,0,1,39.68,93.31Z" transform="translate(0 -4.01)"/><path class="cls-3" d="M18.71,79.4a6.46,6.46,0,0,0,1,2.82l1.21,1.21C23.75,85.43,29,84.9,36,81.3,46,76.15,59,89.07,66.94,94c3.94,2.45,9.29-1,13.64-5.07L82,87.51,54.22,59.71a13.38,13.38,0,0,0-18.92,0h0L19.19,75.76A8.68,8.68,0,0,0,18.71,79.4Z" transform="translate(0 -4.01)"/><path class="cls-21" d="M54.56,85.24c4.66,3,9,6.61,12.41,8.71,3.94,2.45,9.29-1,13.64-5.07L82,87.51,63.13,68.62Z" transform="translate(0 -4.01)"/><path class="cls-22" d="M29.77,75.34l-8.39,8.34c2.92,1.7,8,1,14.71-2.38,10-5.15,23,7.77,30.91,12.65a5,5,0,0,0,1.94.72L49.48,75.34A14,14,0,0,0,29.77,75.34Z" transform="translate(0 -4.01)"/><path class="cls-23" d="M30.14,76.15,22.2,84.08c3,1.16,7.78.34,13.86-2.78C46,76.2,58.83,88.8,66.77,93.79L49.07,76.15a13.38,13.38,0,0,0-18.92,0Z" transform="translate(0 -4.01)"/><path class="cls-24" d="M51,83.11c-3.23-4-9.33-6-15.6-4.47a17,17,0,0,0-9.51,5.87,26.43,26.43,0,0,0,10.19-3.25C40.67,78.94,45.9,80.38,51,83.11Z" transform="translate(0 -4.01)"/><path class="cls-25" d="M100.43,62.53a4.16,4.16,0,1,1,5,3.1h0A4.16,4.16,0,0,1,100.43,62.53Z" transform="translate(0 -4.01)"/><path d="M141.94,60.68a10.61,10.61,0,0,1-3.56,6.07,10.57,10.57,0,0,1-12,.47,9.48,9.48,0,0,1-3.3-3.46q-.32-.65-.57-1.23a9.08,9.08,0,0,1-.39-1.51,48.49,48.49,0,0,1-.29-6.58,48.28,48.28,0,0,1,.29-6.62,7.88,7.88,0,0,1,1-2.7A10,10,0,0,1,132,40a9.63,9.63,0,0,1,6.69,2.43,10.65,10.65,0,0,1,3.27,6h-4.55a6.24,6.24,0,0,0-1.91-2.92,5.62,5.62,0,0,0-3.5-1.19,6.12,6.12,0,0,0-2.61.6,5.54,5.54,0,0,0-1.79,1.46,4.68,4.68,0,0,0-1.11,2.36,33.61,33.61,0,0,0-.31,5.7,32.8,32.8,0,0,0,.31,5.66,4.67,4.67,0,0,0,1.11,2.39,5.79,5.79,0,0,0,4.4,2.07q3.61,0,5.41-3.88Z" transform="translate(0 -4.01)"/><path d="M143.61,58.51a17.62,17.62,0,0,1,.53-4.91,7.13,7.13,0,0,1,1.67-2.82A7.72,7.72,0,0,1,148.15,49a8.73,8.73,0,0,1,3.79-.8,8.91,8.91,0,0,1,3.87.8,7.2,7.2,0,0,1,2.26,1.81,6.47,6.47,0,0,1,1.71,2.82,18.71,18.71,0,0,1,.49,4.91,18.23,18.23,0,0,1-.49,4.86,7,7,0,0,1-1.71,2.9,6.22,6.22,0,0,1-.95.87,4.35,4.35,0,0,1-1.31.84,8.08,8.08,0,0,1-3.87.88,7.92,7.92,0,0,1-3.79-.88,7.54,7.54,0,0,1-4-4.61A17.17,17.17,0,0,1,143.61,58.51Zm12.59,0a18.19,18.19,0,0,0-.19-3.15,3.76,3.76,0,0,0-.8-1.67,3,3,0,0,0-1.32-1.07,4.44,4.44,0,0,0-1.95-.41,4.52,4.52,0,0,0-1.91.41,3.71,3.71,0,0,0-1.36,1.07,4.82,4.82,0,0,0-.76,1.67,15.41,15.41,0,0,0-.23,3.12,14.91,14.91,0,0,0,.23,3.07,5.14,5.14,0,0,0,.76,1.75,5.07,5.07,0,0,0,1.36,1,4.25,4.25,0,0,0,1.91.43,4.18,4.18,0,0,0,1.95-.43,3.87,3.87,0,0,0,1.32-1,4,4,0,0,0,.8-1.75A17.12,17.12,0,0,0,156.2,58.54Z" transform="translate(0 -4.01)"/><path d="M164.76,48.43h4.07v2.14h.08a6.52,6.52,0,0,1,5.27-2.4,7.68,7.68,0,0,1,3.39.72,10.22,10.22,0,0,1,2.31,1.93,8,8,0,0,1,6.36-2.65,6.9,6.9,0,0,1,4.59,1.77A6.79,6.79,0,0,1,193,55.2V68.62h-4.06v-12a4.38,4.38,0,0,0-1.11-3.23,3.84,3.84,0,0,0-2.86-1.13,3.9,3.9,0,0,0-2.88,1.13,4.28,4.28,0,0,0-1.15,3.23v12h-4.06v-12a4.38,4.38,0,0,0-1.11-3.23,3.94,3.94,0,0,0-2.88-1.13A3.84,3.84,0,0,0,170,53.37a4.25,4.25,0,0,0-1.17,3.23v12h-4.07Z" transform="translate(0 -4.01)"/><path d="M198.71,48.43h4.07v2.14h.08a6.52,6.52,0,0,1,5.27-2.4,7.68,7.68,0,0,1,3.39.72,10.22,10.22,0,0,1,2.31,1.93,8,8,0,0,1,6.36-2.65,6.94,6.94,0,0,1,4.6,1.77,6.86,6.86,0,0,1,2.14,5.26V68.62h-4.07v-12a4.38,4.38,0,0,0-1.11-3.23,3.84,3.84,0,0,0-2.86-1.13A3.9,3.9,0,0,0,216,53.37a4.32,4.32,0,0,0-1.15,3.23v12H210.8v-12a4.38,4.38,0,0,0-1.11-3.23,3.9,3.9,0,0,0-2.88-1.13A3.84,3.84,0,0,0,204,53.37a4.25,4.25,0,0,0-1.17,3.23v12h-4.07Z" transform="translate(0 -4.01)"/><path d="M232.43,48.43h4.07v12a4.29,4.29,0,0,0,1.15,3.19,3.84,3.84,0,0,0,2.88,1.15,3.8,3.8,0,0,0,2.86-1.15,4.35,4.35,0,0,0,1.12-3.19v-12h4.07V68.62h-4.07V66.46h-.07a6.5,6.5,0,0,1-5.24,2.4A6.88,6.88,0,0,1,234.67,67a6.32,6.32,0,0,1-2.24-5.18Z" transform="translate(0 -4.01)"/><path d="M253.83,48.43h4.07v2.14H258a6.51,6.51,0,0,1,5.25-2.4,6.71,6.71,0,0,1,6.75,7V68.62h-4.06v-12a4.35,4.35,0,0,0-1.13-3.23,3.84,3.84,0,0,0-2.86-1.13,3.9,3.9,0,0,0-2.88,1.13,4.28,4.28,0,0,0-1.15,3.23v12h-4.07Z" transform="translate(0 -4.01)"/><path d="M275.35,40.25h4.07v4.07h-4.07Zm0,8.18h4.07V68.62h-4.07Z" transform="translate(0 -4.01)"/><path d="M285,42.28h4.07v6.15h3v3.09h-3V63.29q0,1.54,1.44,1.5h1.52v3.83h-2.12a4.84,4.84,0,0,1-3.51-1.32,4.68,4.68,0,0,1-1.4-3.66V51.52h-2V48.43h2Z" transform="translate(0 -4.01)"/><path d="M293,48.43h4.3l4.79,14.14h.08l4.76-14.14h4.32l-8.7,24.38A5.78,5.78,0,0,1,300.2,76a6.81,6.81,0,0,1-3.39.83h-1.34V73h1.19a2.71,2.71,0,0,0,1.48-.43,2.34,2.34,0,0,0,.95-1.32l1.11-3.38Z" transform="translate(0 -4.01)"/><path d="M331.87,64.56c3.69-.06,5.56-1.37,5.61-4q0-3.18-3.7-3.82L330,56.27a9.28,9.28,0,0,1-5.57-2.71,7.52,7.52,0,0,1-2-5.25,7.73,7.73,0,0,1,2.47-6c1.59-1.51,3.86-2.27,6.79-2.3A16,16,0,0,1,341,43l-2.39,3.54a13,13,0,0,0-7-2.18,5.35,5.35,0,0,0-3.3,1,3.66,3.66,0,0,0-1.42,3.08,3.12,3.12,0,0,0,.95,2.22,5.47,5.47,0,0,0,3.05,1.4c.78.13,1.85.28,3.19.44a8.89,8.89,0,0,1,5.9,2.86,8.06,8.06,0,0,1,1.89,5.3q-.23,8.13-10,8.25A16,16,0,0,1,321,65l2.82-3.22A12.51,12.51,0,0,0,331.87,64.56Z" transform="translate(0 -4.01)"/><path d="M360.83,65.35a10.89,10.89,0,0,1-3.12,2.48,8.75,8.75,0,0,1-4.14,1,9.1,9.1,0,0,1-6.29-2.44c-1.86-1.62-2.82-4.24-2.88-7.88s1-6.33,2.88-8a9.36,9.36,0,0,1,10.43-1.42,10.18,10.18,0,0,1,3.12,2.55l-3,2.66a5.09,5.09,0,0,0-4.11-2.12q-5.18-.08-5.25,6.3c0,4.23,1.8,6.32,5.25,6.25a5,5,0,0,0,4.11-2.1Z" transform="translate(0 -4.01)"/><path d="M363.76,40.25h4.07v4.07h-4.07Zm0,8.18h4.07V68.62h-4.07Z" transform="translate(0 -4.01)"/><path d="M376.27,60.06a4.74,4.74,0,0,0,1.4,3.7A4.67,4.67,0,0,0,381.1,65a6.06,6.06,0,0,0,4.42-2l2.93,2.51a9.55,9.55,0,0,1-7.27,3.27,10.63,10.63,0,0,1-3.12-.47,8.51,8.51,0,0,1-1.48-.68,7.11,7.11,0,0,1-1.41-.92,8,8,0,0,1-2.09-3.15,12.47,12.47,0,0,1-.87-5.06,14,14,0,0,1,.76-5,8.61,8.61,0,0,1,1.94-3.19,7.32,7.32,0,0,1,2.71-1.71,8.67,8.67,0,0,1,2.92-.53,8.42,8.42,0,0,1,5.85,2.28,8.28,8.28,0,0,1,2.47,6.27v3.34Zm8.53-3.34a5.17,5.17,0,0,0-1.27-3.56,4.48,4.48,0,0,0-6,0,5.36,5.36,0,0,0-1.27,3.56Z" transform="translate(0 -4.01)"/><path d="M393.12,48.43h4.07v2.14h.08a6.49,6.49,0,0,1,5.25-2.4,6.93,6.93,0,0,1,4.59,1.77,6.84,6.84,0,0,1,2.16,5.26V68.62h-4.06v-12a4.35,4.35,0,0,0-1.13-3.23,3.86,3.86,0,0,0-2.86-1.13,3.9,3.9,0,0,0-2.88,1.13,4.28,4.28,0,0,0-1.15,3.23v12h-4.07Z" transform="translate(0 -4.01)"/><path d="M429.39,65.35a10.85,10.85,0,0,1-3.11,2.48,8.82,8.82,0,0,1-4.15,1,9.07,9.07,0,0,1-6.28-2.44C414,64.8,413,62.18,413,58.54s1-6.33,2.88-8a9,9,0,0,1,6.28-2.4,9.17,9.17,0,0,1,4.15,1,10.14,10.14,0,0,1,3.11,2.55l-3,2.66a5.07,5.07,0,0,0-4.1-2.12q-5.18-.08-5.25,6.3c0,4.23,1.8,6.32,5.25,6.25a5,5,0,0,0,4.1-2.1Z" transform="translate(0 -4.01)"/><path d="M435.29,60.06a4.71,4.71,0,0,0,1.4,3.7A4.65,4.65,0,0,0,440.11,65a6.06,6.06,0,0,0,4.42-2l2.94,2.51a9.58,9.58,0,0,1-7.28,3.27,10.51,10.51,0,0,1-3.11-.47,7.88,7.88,0,0,1-1.48-.68,6.9,6.9,0,0,1-1.42-.92,8,8,0,0,1-2.09-3.15,12.47,12.47,0,0,1-.87-5.06,14,14,0,0,1,.76-5,8.61,8.61,0,0,1,1.94-3.19,7.32,7.32,0,0,1,2.71-1.71,8.67,8.67,0,0,1,2.92-.53,8.4,8.4,0,0,1,5.85,2.28,8.28,8.28,0,0,1,2.47,6.27v3.34Zm8.52-3.34a5.12,5.12,0,0,0-1.27-3.56,4.48,4.48,0,0,0-6,0,5.36,5.36,0,0,0-1.26,3.56Z" transform="translate(0 -4.01)"/><path d="M462.06,40.25h4l8.14,18.49,8-18.49h4.07V68.62H482V50.94h-.1L476,64.56h-3.58l-5.93-13.62h-.08V68.62h-4.3Z" transform="translate(0 -4.01)"/><path d="M491.88,48.43H496v12a4.29,4.29,0,0,0,1.15,3.19A3.84,3.84,0,0,0,500,64.79a3.78,3.78,0,0,0,2.86-1.15A4.36,4.36,0,0,0,504,60.45v-12H508V68.62H504V66.46h-.08a6.49,6.49,0,0,1-5.23,2.4A6.88,6.88,0,0,1,494.12,67a6.35,6.35,0,0,1-2.24-5.18Z" transform="translate(0 -4.01)"/><path d="M520.27,65a5.34,5.34,0,0,0,2.86-.68,2.12,2.12,0,0,0,1.11-1.9,1.66,1.66,0,0,0-.66-1.52,3.52,3.52,0,0,0-1.81-.49l-3.58-.31a6.85,6.85,0,0,1-4.14-1.71,5.23,5.23,0,0,1-1.68-4,5.48,5.48,0,0,1,2.2-4.67,8.7,8.7,0,0,1,5.33-1.56,15.73,15.73,0,0,1,2.51.18,12.91,12.91,0,0,1,2.08.54,11.92,11.92,0,0,1,3.35,2l-2.51,2.94a12.81,12.81,0,0,0-2.47-1.39,8.43,8.43,0,0,0-3-.48,4,4,0,0,0-2.66.68,2.17,2.17,0,0,0-.8,1.75,1.37,1.37,0,0,0,.6,1.19,3.6,3.6,0,0,0,2.06.72l3.35.25A6.21,6.21,0,0,1,527,58.51a6.43,6.43,0,0,1,1.31,4.14,5.25,5.25,0,0,1-2.4,4.53,10.38,10.38,0,0,1-6,1.68,12.84,12.84,0,0,1-8.89-3.62l2.84-2.78A8.44,8.44,0,0,0,520.27,65Z" transform="translate(0 -4.01)"/><path d="M535.49,60.06a4.71,4.71,0,0,0,1.4,3.7A4.65,4.65,0,0,0,540.31,65a6.06,6.06,0,0,0,4.42-2l2.94,2.51a9.58,9.58,0,0,1-7.28,3.27,10.56,10.56,0,0,1-3.11-.47,7.88,7.88,0,0,1-1.48-.68,6.9,6.9,0,0,1-1.42-.92,8,8,0,0,1-2.09-3.15,12.47,12.47,0,0,1-.87-5.06,14,14,0,0,1,.76-5,8.61,8.61,0,0,1,1.94-3.19,7.32,7.32,0,0,1,2.71-1.71,8.67,8.67,0,0,1,2.92-.53,8.4,8.4,0,0,1,5.85,2.28,8.28,8.28,0,0,1,2.47,6.27v3.34ZM544,56.72a5.12,5.12,0,0,0-1.27-3.56,4.48,4.48,0,0,0-6,0,5.36,5.36,0,0,0-1.26,3.56Z" transform="translate(0 -4.01)"/><path d="M552.34,48.43h4.06v12a4.29,4.29,0,0,0,1.15,3.19,3.84,3.84,0,0,0,2.88,1.15,3.78,3.78,0,0,0,2.86-1.15,4.36,4.36,0,0,0,1.13-3.19v-12h4.06V68.62h-4.06V66.46h-.08a6.49,6.49,0,0,1-5.23,2.4A6.88,6.88,0,0,1,554.57,67a6.32,6.32,0,0,1-2.23-5.18Z" transform="translate(0 -4.01)"/><path d="M574,48.43H578v2.14h.08a6.52,6.52,0,0,1,5.27-2.4,7.61,7.61,0,0,1,3.38.72,10.06,10.06,0,0,1,2.32,1.93,8,8,0,0,1,6.36-2.65A6.92,6.92,0,0,1,600,49.94a6.79,6.79,0,0,1,2.14,5.26V68.62h-4.06v-12A4.38,4.38,0,0,0,597,53.37a3.84,3.84,0,0,0-2.86-1.13,3.9,3.9,0,0,0-2.88,1.13,4.28,4.28,0,0,0-1.15,3.23v12h-4.07v-12a4.42,4.42,0,0,0-1.1-3.23,3.94,3.94,0,0,0-2.88-1.13,3.83,3.83,0,0,0-2.86,1.13A4.25,4.25,0,0,0,578,56.6v12H574Z" transform="translate(0 -4.01)"/></svg>